<svg width="100%" height="100%" viewBox="0 0 600 600" xmlns="http://www.w3.org/2000/svg" style="fill-rule:evenodd;clip-rule:evenodd;stroke-linejoin:round;stroke-miterlimit:2;"><g id="Icon"><path d="M64.454,399.6c-0.494,-0.827 -0.98,-1.683 -1.508,-2.526c-11.233,-17.979 -24.497,-43.677 -24.497,-43.677c-0.574,-1.118 -0.663,-2.425 -0.244,-3.611c0.418,-1.186 1.307,-2.145 2.457,-2.651l33.648,-15.302l167.913,-83.433c1.394,-0.704 3.108,-0.152 3.827,1.239c0,0 26.198,46.061 36.357,64.115l1.512,2.717c20.173,-9.509 64.765,-30.756 98.276,-48.281c19.483,-10.187 35.213,-18.793 39.57,-22.753c-0.373,-0.683 -0.874,-1.543 -1.397,-2.347c-6.61,-10.401 -24.429,-34.4 -28.892,-39.178c-0.334,-0.361 -3.947,-3.903 -4.697,-5.53c-1.055,-2.285 -0.111,-3.903 1.059,-4.758c0.549,-0.401 4.656,-0.873 10.94,-0.139c20.189,2.321 69.344,10.429 76.778,10.951c11.359,0.796 22.614,1.494 33.867,1.554c7.45,0.041 14.912,-0.209 22.423,-0.88c0.99,-0.083 5.097,-1.029 7.282,-0.543c2.107,0.455 3.338,1.741 3.729,3.479c0.025,0.112 -0.027,0.387 -0.151,0.815c0.731,0.608 1.54,1.266 2.304,2.302c7.205,9.754 15.794,32.421 15.794,32.421c0.432,0.945 0.429,2.03 -0.025,2.96l-40.168,81.129l-24.626,41.928c-0.639,1.089 -1.777,1.78 -3.041,1.856c-1.265,0.08 -2.48,-0.48 -3.248,-1.481l-20.664,-28.082l-3.465,-7.208c-2.854,-4.782 -6.907,-11.641 -10.939,-18.698c-1.203,0.66 -2.59,1.064 -3.794,1.691c-20.407,10.601 -39.442,21.1 -58.181,32.701c-13.742,8.51 -27.336,17.574 -41.594,26.972c-5.777,3.986 -16.902,12.172 -27.009,18.641c-10.332,6.611 -19.787,11.259 -20.909,11.293l-5.9,-2.998c-0.129,0.105 -0.316,0.116 -0.459,0.017c-0.12,-0.076 -0.181,-0.208 -0.174,-0.339l-23.686,-12.034l-6.138,-2.65c-1.42,-0.922 -4.845,-2.543 -4.835,-3.517c0.027,-0.975 -0.595,-2.239 -0.107,-3.037l-22.024,-42.72l-34.355,20.512c-5.296,3.27 -10.577,6.553 -15.86,9.826c-0.093,0.225 -0.317,0.357 -0.548,0.34c-9.297,5.76 -18.6,11.491 -27.992,17.084c-9.98,5.938 -20.049,11.719 -30.306,17.196l-25.089,12.917c-0.752,0.381 -1.605,0.466 -2.401,0.238l-9.502,-2.7c-0.013,0.04 -0.031,0.08 -0.056,0.116c-0.145,0.213 -0.435,0.27 -0.645,0.126c-0.236,-0.047 -0.468,-0.247 -0.642,-0.624l-21.582,-6.133c-0.659,-0.302 -4.938,-4.463 -5.947,-7.587c-0.236,-0.718 -0.43,-1.292 -0.439,-1.719Zm201.206,-13.255c0.079,0.23 0.442,0.856 0.576,0.622c0.255,-0.444 0.938,-0.092 1.099,-0.431c-0.228,0.013 -0.449,0.011 -0.663,-0.006c-0.277,0.202 -0.59,0.202 -0.909,-0.156c-0.035,-0.009 -0.069,-0.019 -0.103,-0.029Z" style="fill:#e16b42;"/><path d="M64.454,399.6c-0.494,-0.827 -0.98,-1.683 -1.508,-2.526c-11.233,-17.979 -24.497,-43.677 -24.497,-43.677c-0.574,-1.118 -0.663,-2.425 -0.244,-3.611c0.418,-1.186 1.307,-2.145 2.457,-2.651l33.648,-15.302l167.913,-83.433c1.394,-0.704 3.108,-0.152 3.827,1.239c0,0 26.198,46.061 36.357,64.115l1.512,2.717c20.173,-9.509 64.765,-30.756 98.276,-48.281c19.483,-10.187 35.213,-18.793 39.57,-22.753c-0.373,-0.683 -0.874,-1.543 -1.397,-2.347c-6.61,-10.401 -24.429,-34.4 -28.892,-39.178c-0.334,-0.361 -3.947,-3.903 -4.697,-5.53c-1.055,-2.285 -0.111,-3.903 1.059,-4.758c0.549,-0.401 4.656,-0.873 10.94,-0.139c20.189,2.321 69.344,10.429 76.778,10.951c11.359,0.796 22.614,1.494 33.867,1.554c7.45,0.041 14.912,-0.209 22.423,-0.88c0.99,-0.083 5.097,-1.029 7.282,-0.543c2.107,0.455 3.338,1.741 3.729,3.479c0.025,0.112 -0.027,0.387 -0.151,0.815c0.731,0.608 1.54,1.266 2.304,2.302c7.205,9.754 15.794,32.421 15.794,32.421c0.432,0.945 0.429,2.03 -0.025,2.96l-40.168,81.129l-24.626,41.928c-0.639,1.089 -1.777,1.78 -3.041,1.856c-1.265,0.08 -2.48,-0.48 -3.248,-1.481l-20.664,-28.082l-3.465,-7.208c-2.854,-4.782 -6.907,-11.641 -10.939,-18.698c-1.203,0.66 -2.59,1.064 -3.794,1.691c-20.407,10.601 -39.442,21.1 -58.181,32.701c-13.742,8.51 -27.336,17.574 -41.594,26.972c-5.777,3.986 -16.902,12.172 -27.009,18.641c-10.332,6.611 -19.787,11.259 -20.909,11.293l-5.9,-2.998c-0.129,0.105 -0.316,0.116 -0.459,0.017c-0.12,-0.076 -0.181,-0.208 -0.174,-0.339l-23.686,-12.034l-6.138,-2.65c-1.42,-0.922 -4.845,-2.543 -4.835,-3.517c0.027,-0.975 -0.595,-2.239 -0.107,-3.037l-22.024,-42.72l-34.355,20.512c-5.296,3.27 -10.577,6.553 -15.86,9.826c-0.093,0.225 -0.317,0.357 -0.548,0.34c-9.297,5.76 -18.6,11.491 -27.992,17.084c-9.98,5.938 -20.049,11.719 -30.306,17.196l-25.089,12.917c-0.752,0.381 -1.605,0.466 -2.401,0.238l-9.502,-2.7c-0.013,0.04 -0.031,0.08 -0.056,0.116c-0.145,0.213 -0.435,0.27 -0.645,0.126c-0.236,-0.047 -0.468,-0.247 -0.642,-0.624l-21.582,-6.133c-0.659,-0.302 -4.938,-4.463 -5.947,-7.587c-0.236,-0.718 -0.43,-1.292 -0.439,-1.719Zm474.736,-181.961c-0.487,1.107 -1.019,2.296 -1.594,3.557c-0.016,1.519 -0.596,3.363 -0.522,4.809l0.83,15.915c0.094,1.345 0.201,2.69 0.316,4.033c0.165,-4.685 0.429,-9.311 0.483,-13.753l0.107,-2.595c-0.238,-0.104 -0.389,-0.362 -0.365,-0.637l0.682,-8.758c0.057,-0.579 0.06,-1.629 0.063,-2.571Zm-4.218,9.193c-0.835,1.757 -1.729,3.608 -2.676,5.537c0.298,0.568 0.57,1.354 0.763,2.258c0.768,3.627 0.844,14.209 0.897,14.938l1.584,31.397l2.626,-5.165c-0.51,-3.787 -1.033,-7.57 -1.462,-11.373c-0.83,-7.415 -1.316,-14.851 -1.794,-22.305l0.062,-15.287Zm-4.563,9.336c-0.107,0.214 -0.215,0.429 -0.324,0.644c-0.781,1.55 -1.587,3.145 -2.416,4.78c0.774,4.488 1.364,9.017 1.847,13.563c0.87,8.176 1.641,16.386 2.288,24.581c0.197,2.504 0.357,5.007 0.544,7.504l1.254,-2.466c-0.642,-3.289 -1.156,-6.633 -1.48,-10.023c-0.792,-8.37 -0.627,-16.895 -1.058,-25.016c-0.025,-0.648 0.031,-8.876 -0.241,-13.291c-0.177,-0.032 -0.323,-0.135 -0.414,-0.276Zm-4.048,8.001c-0.498,0.98 -1.003,1.973 -1.514,2.976l0.778,9.685l3.297,37.147l1.763,-3.466c-0.747,-3.866 -1.364,-7.761 -1.768,-11.694c-1.185,-11.522 -1.242,-23.192 -2.556,-34.648Zm-3.36,6.593c-0.279,0.546 -0.559,1.095 -0.842,1.647l0.872,12.897l1.069,9.164c-0.397,-5.825 -0.58,-11.662 -0.935,-17.448l-0.164,-6.26Zm-2.268,4.432c-0.582,1.137 -1.17,2.282 -1.762,3.436c1.198,6.045 2.218,12.125 2.905,18.253c0.973,8.739 1.445,17.521 2.39,26.251l0.787,-1.546l-1.045,-5.614l-2.964,-30.507l-0.311,-10.273Zm-3.264,6.359c-0.62,1.205 -1.244,2.417 -1.871,3.634c0.207,0.32 0.387,0.816 0.508,1.416c0.628,3.148 1.268,12.978 1.452,14.306l3.756,28.032l1.658,-3.261c-1.147,-5.655 -2.128,-11.338 -2.813,-17.074c-1.079,-9.003 -1.614,-18.064 -2.69,-27.053Zm-3.497,6.786c-0.793,1.538 -1.59,3.082 -2.389,4.627c0.076,0.189 0.136,0.395 0.184,0.612c0.239,1.062 0.002,2.57 0.271,3.609l1.223,7.016l4.454,31.817l2.462,-4.843c-0.165,-0.863 -0.323,-1.728 -0.469,-2.595c-1.546,-9.106 -2.452,-18.302 -3.643,-27.477c-0.143,-1.118 -0.536,-8.331 -1.022,-12.427c-0.123,0.123 -0.302,0.194 -0.494,0.178c-0.294,-0.023 -0.52,-0.243 -0.577,-0.517Zm-4.186,8.101c-0.64,1.236 -1.28,2.472 -1.919,3.705c0.954,4.54 1.796,9.112 2.38,13.732c1.287,10.179 1.815,20.466 3.109,30.624l0.383,-0.66l2.2,-4.329c-1.194,-5.519 -2.371,-11.047 -3.232,-16.637c-0.939,-6.066 -1.494,-12.198 -2.215,-18.302l-0.747,-7.041l0.041,-1.092Zm-3.458,6.672c-0.376,0.725 -0.752,1.449 -1.127,2.171l0.652,4.667l0.918,9.532l4.191,29.147l0.685,-1.181c-1.061,-5.72 -1.92,-11.487 -2.534,-17.296c-0.955,-8.956 -1.465,-17.966 -2.617,-26.872c-0.066,-0.046 -0.123,-0.103 -0.168,-0.168Zm-3.036,5.847c-0.366,0.704 -0.731,1.406 -1.095,2.106c0.054,0.256 0.096,0.478 0.117,0.641l1.184,9.772l4.336,32.545l1.942,-3.349c-0.145,-0.745 -0.285,-1.491 -0.42,-2.238c-1.708,-9.529 -2.9,-19.14 -4.105,-28.765l-0.778,-8.825c-0.112,0.171 -0.305,0.266 -0.528,0.263c-0.357,-0.014 -0.635,-0.319 -0.622,-0.676l-0.031,-1.474Zm-2.365,4.548c-0.641,1.232 -1.277,2.454 -1.908,3.666l2.56,13.482c0.581,3.425 1.255,6.823 1.842,10.234c-0.876,-6.347 -1.33,-12.749 -1.923,-19.186l-0.571,-8.196Zm-4.232,8.125c-0.523,1.004 -1.042,1.998 -1.555,2.98l0.089,0.799l1.416,10.842l4.342,24.403l0.428,4.436l2.917,-5.029c-1.153,-4.526 -2.36,-9.014 -3.214,-13.596c-0.944,-5.094 -1.428,-10.262 -2.134,-15.411l-0.969,-7.22c-0.009,0.345 -0.289,0.625 -0.635,0.629c-0.358,-0.001 -0.658,-0.285 -0.66,-0.647l-0.025,-2.186Zm-2.581,4.946c-0.99,1.896 -1.956,3.747 -2.895,5.543c0.863,3.928 1.72,7.851 2.396,11.821c1.569,9.2 2.663,18.469 4.003,27.699l2.393,-4.127c-0.131,-0.222 -0.258,-0.466 -0.377,-0.731c-0.921,-2.04 -1.345,-5.202 -1.452,-5.624l-2.822,-24.743l-1.246,-9.838Zm-4.401,8.423c-0.899,1.719 -1.768,3.38 -2.603,4.974c0.732,3.088 1.754,9.987 2.067,11.718l4.895,26.062l1.964,-3.386c-1.608,-8.304 -3.13,-16.623 -4.383,-24.987c-0.721,-4.784 -1.297,-9.583 -1.94,-14.381Zm-4.507,8.608c-0.16,0.306 -0.318,0.608 -0.474,0.906c0.256,0.759 0.484,1.545 0.681,2.352c1.043,4.267 1.328,9.058 2.06,12.894c1.065,6.129 2.638,12.182 3.623,18.318c0.105,0.661 0.196,1.322 0.277,1.983l0.8,0.969l0.874,-1.508l-5.162,-27.597c-0.215,-1.207 -0.775,-4.914 -1.352,-8.081l0.217,1.945c0.031,0.353 -0.236,0.664 -0.593,0.694c-0.361,0.032 -0.677,-0.237 -0.701,-0.595l-0.25,-2.28Zm-2.455,4.683c-0.463,0.883 -0.906,1.728 -1.328,2.532c0.441,1.674 0.772,3.54 0.894,3.985c0.972,3.679 2.171,7.327 3.021,11.064c0.648,2.859 1.082,5.755 1.461,8.644l1.768,2.144l-3.796,-16.416l-2.02,-11.953Zm-2.658,5.066c-0.681,1.295 -1.285,2.446 -1.806,3.436c0.901,1.774 1.778,3.732 2.306,5.856c0.438,1.761 0.671,3.585 0.843,5.366l2.914,3.533l-3.969,-16.277l-0.288,-1.914Zm-2.926,5.568c-0.706,1.34 -1.087,2.065 -1.087,2.065c-0.057,0.107 -0.118,0.21 -0.183,0.31l2.619,3.176l-1.349,-5.551Zm-26.517,-29.988c-0.431,-0.775 -0.857,-1.546 -1.276,-2.308c-0.171,0.893 -0.388,1.93 -0.663,3.007c0.598,-0.229 1.202,-0.448 1.811,-0.657c0.043,-0.014 0.086,-0.028 0.128,-0.042Zm-3.087,-5.635c-0.529,-0.983 -1.039,-1.948 -1.529,-2.889c-0.11,1.09 -0.195,2.045 -0.236,2.33c-0.526,2.756 -0.82,5.569 -1.709,8.222c-0.091,0.271 -0.187,0.539 -0.288,0.805c0.154,-0.075 0.308,-0.148 0.462,-0.222c0.748,-2.414 1.558,-5.177 2.43,-6.808c0.294,-0.55 0.587,-1.03 0.87,-1.438Zm-2.996,-5.761c-0.409,-0.818 -0.797,-1.61 -1.162,-2.371c-0.524,1.712 -1.003,3.463 -1.138,4.44c-0.527,3.428 -1.047,6.849 -2.229,10.07c-0.703,1.912 -1.625,3.702 -2.561,5.494c0.66,-0.387 1.325,-0.768 1.994,-1.141c0.216,-1.404 0.442,-2.803 0.801,-4.194c0.695,-2.684 1.845,-5.202 2.706,-7.827c0.179,-0.467 0.931,-2.742 1.589,-4.471Zm-2.318,-4.853c-0.276,-0.612 -0.532,-1.197 -0.765,-1.75c-0.32,1.738 -0.797,4.019 -1.201,5.969c0.568,-1.33 1.312,-2.896 1.966,-4.219Zm-1.751,-4.278c-0,-0.001 -0.001,-0.003 -0.002,-0.005c-0.132,0.068 -0.264,0.136 -0.398,0.205c-0.159,0.57 -0.342,1.215 -0.537,1.893c0.218,-0.583 0.415,-1.102 0.576,-1.522c0.096,-0.251 0.222,-0.435 0.361,-0.571Zm-2.977,1.535c-1.092,0.57 -2.22,1.164 -3.382,1.781c-0.291,0.848 -0.539,1.588 -0.567,1.693l-2.618,8.651c-1.939,5.781 -3.403,11.712 -5.558,17.419c-0.557,1.476 -1.175,2.916 -1.824,4.341c0.746,-0.452 1.489,-0.912 2.232,-1.377c0.35,-2.958 0.827,-5.906 1.645,-8.824c1.642,-5.881 4.343,-11.478 6.418,-17.07c0.441,-0.899 2.226,-3.998 3.654,-6.614Zm-5.453,2.885c-1.6,0.856 -3.258,1.752 -4.969,2.682l-1.315,4.989c-1.564,5.47 -2.723,11.178 -4.368,16.753c-0.988,3.348 -2.144,6.635 -3.422,9.844c0.875,-0.509 1.751,-1.018 2.629,-1.526c0.548,-2.375 1.096,-4.747 1.8,-7.087c1.769,-5.862 4.169,-11.505 6.374,-17.196l3.224,-8.336c0.006,-0.02 0.023,-0.062 0.047,-0.123Zm-8.463,4.591c-0.966,0.53 -1.946,1.07 -2.941,1.619c-0.034,0.11 -0.099,0.212 -0.192,0.292l-1.609,10.331c-0.765,3.625 -1.705,7.094 -3.124,10.337c-1.874,4.274 -4.361,8.157 -6.638,12.339c1.516,-0.903 3.034,-1.803 4.557,-2.7l9.261,-30.047c0.128,-0.331 0.368,-1.147 0.686,-2.171Zm-5.51,3.041c-1.245,0.691 -2.509,1.396 -3.792,2.112c-0.117,0.712 -0.219,1.314 -0.226,1.35l-2.086,9.08c-0.828,3.522 -1.569,7.066 -2.69,10.501c-1.283,3.926 -2.907,7.704 -4.585,11.46c1.007,-0.606 2.014,-1.21 3.024,-1.814l8.23,-24.154c0.306,-1.089 0.735,-4.788 1.688,-7.459c0.137,-0.382 0.284,-0.743 0.437,-1.076Zm-6.626,3.699c-1.353,0.758 -2.724,1.53 -4.111,2.312l-2.243,10.249c-1.231,4.775 -1.854,13.367 -3.74,20.262c0.293,-0.178 0.587,-0.356 0.88,-0.533l6.446,-24.286l2.768,-8.004Zm-6.177,3.479c-1.449,0.819 -2.914,1.649 -4.394,2.49c0.009,0.16 0.002,0.336 -0.028,0.526c-0.454,2.857 -1.868,9.611 -2.37,11.996l-4.802,19.026c1.853,-1.142 3.707,-2.278 5.564,-3.41c1.634,-7.3 2.793,-16.812 4.095,-22c0.284,-1.009 1.045,-5.562 1.935,-8.628Zm-5.906,3.349c-1.834,1.044 -3.69,2.102 -5.564,3.173c-0.065,0.954 -0.607,2.676 -0.66,3.376l-1.34,9.973c-0.936,4.794 -1.507,9.764 -2.826,14.525c-0.301,1.082 -0.646,2.145 -1.026,3.191c1.134,-0.706 2.268,-1.411 3.403,-2.113c0.168,-1.843 0.413,-3.692 0.787,-5.537c1.071,-5.261 2.959,-10.376 4.297,-15.423c0.593,-2.175 2.222,-8.111 2.929,-11.165Zm-8.433,4.815c-2.032,1.164 -4.083,2.342 -6.149,3.53c0.032,0.09 0.06,0.198 0.078,0.325l-0.005,0.119c0.553,0.45 -0.11,3.637 -0.154,4.715l-0.595,7.529c-0.42,3.884 -0.783,7.73 -1.455,11.552c-0.336,1.917 -0.746,3.82 -1.193,5.718c1.126,-0.709 2.252,-1.416 3.377,-2.12l3.481,-20.306l2.262,-9.905c0.1,-0.259 0.219,-0.684 0.353,-1.157Zm-7.582,4.355c-1.384,0.797 -2.774,1.598 -4.169,2.403c0.027,0.023 0.053,0.048 0.078,0.076c0.089,0.091 0.239,0.298 0.26,0.686c0.027,0.256 -0.099,0.494 -0.308,0.618c-0.047,0.86 -0.906,2.943 -0.919,3.007l-1.691,8.47l-5.757,20.608c2.707,-1.73 5.405,-3.445 8.098,-5.147l3.083,-19.126l1.063,-7.373c0.099,-0.956 0.174,-3.074 0.262,-4.222Zm-5.536,3.193c-2.422,1.398 -4.857,2.808 -7.3,4.223c0.427,0.558 0.869,1.557 0.871,2.942c0.009,3.814 -1.196,10.195 -1.507,11.704c-0.946,3.906 -1.714,8.064 -2.813,12.125c-0.467,1.725 -0.989,3.428 -1.558,5.101c1.141,-0.733 2.279,-1.463 3.415,-2.191c0.586,-4.062 1.199,-8.107 2.131,-12.099c0.82,-3.526 2,-6.959 3.048,-10.428l2.544,-8.198c0.021,-0.07 0.668,-2.067 1.169,-3.179Zm-8.552,4.949c-2.3,1.334 -4.605,2.672 -6.909,4.012c-0.032,0.135 -0.065,0.274 -0.099,0.416l-0.034,0.129l-0.031,0.001c-0.321,-0.06 -0.584,0.102 -0.793,0.419c-0.13,-0.037 -0.239,-0.118 -0.317,-0.224c-0.021,0.012 -0.043,0.025 -0.065,0.038c0.039,0.235 0.089,0.443 0.149,0.628c-1.054,2.548 -0.566,9.86 -0.76,10.86l-6.177,22.154c2.787,-1.808 5.555,-3.599 8.309,-5.374l4.283,-19.851c0.377,-1.448 1.197,-7.676 2.057,-11.29c0.168,-0.706 0.257,-1.446 0.387,-1.918Zm-9.171,5.328c-4.1,2.385 -8.194,4.771 -12.25,7.139c0.061,0.038 0.122,0.082 0.181,0.133c0.346,-0.026 0.625,0.064 0.611,0.098c-0.045,0.145 -0.132,0.266 -0.25,0.344c0.104,0.205 0.153,0.47 0.102,0.791c-0.414,2.627 -1.562,8.836 -1.887,10.637l-6.56,23.083l4.556,-2.896l5.823,-25.021c0.193,-0.578 1.455,-5.866 2.678,-8.769c0.649,-1.547 1.471,-2.437 1.948,-2.488c0.396,-0.031 1.249,0.142 1.106,1.145c-0.075,0.544 -0.65,1.904 -0.614,2.117c0.094,0.348 -0.102,0.696 -0.451,0.793l-0.041,0.006l-1.209,8.072l-6.392,22.33c1.369,-0.891 2.732,-1.778 4.09,-2.66c0.179,-2.897 0.491,-5.813 1.106,-8.721c1.145,-5.469 3.124,-10.802 4.55,-16.033c0.347,-1.016 1.903,-7.035 2.903,-10.1Zm-12.795,7.457c-1.929,1.126 -3.849,2.247 -5.756,3.362c-0.006,0.154 -0.065,0.304 -0.18,0.421c-1.166,1.395 -1.858,3.286 -2.377,5.324c-0.805,3.144 -1.108,6.583 -1.599,9.176l-6.661,22.406l7.142,-4.54c-0.407,-0.307 -0.601,-0.843 -0.441,-1.367l6.402,-23.762c0.528,-1.75 2.275,-7.806 3.062,-10.344c0.087,-0.293 0.251,-0.499 0.429,-0.63c-0.007,-0.015 -0.014,-0.031 -0.021,-0.046Zm-8.748,5.111c-2.907,1.699 -5.781,3.38 -8.611,5.035c0.013,0.01 0.027,0.02 0.04,0.03c0.145,0.114 0.494,0.521 0.376,1.215c-0.16,0.962 -0.941,3.3 -1.057,3.642c-0.031,0.112 -0.085,0.203 -0.157,0.265l-0.141,0.448l-2.805,9.787l-7.509,22.808l2.794,-1.776c0.749,-3.352 1.4,-6.721 2.206,-10.066c1.199,-4.968 2.716,-9.835 4.375,-14.668c0.363,-0.984 3.584,-8.45 4.469,-11.134c-0.144,-0.2 -0.164,-0.484 -0.024,-0.717c1.502,-2.718 2.181,-2.261 1.436,0.924c-0.608,2.597 -3.292,10.64 -3.58,11.672c-2.141,6.76 -3.435,13.751 -5.491,20.527c-0.167,0.55 -0.342,1.097 -0.525,1.64l3.781,-2.403c0.644,-4.761 1.568,-9.549 2.764,-14.268c0.923,-3.631 2.07,-7.176 3.007,-10.724c0.874,-2.517 1.685,-5.921 2.959,-8.954c0.495,-1.173 1.049,-2.291 1.693,-3.283Zm-11.007,6.437c-1.486,0.869 -2.958,1.73 -4.415,2.582c-0.109,1.002 -0.33,2.659 -0.739,5.069l-2.713,10.281c-1.781,5.892 -3.472,11.81 -5.622,17.558c-0.723,1.935 -1.517,3.833 -2.327,5.726l3.634,-2.31c1.159,-4.917 2.336,-9.797 3.769,-14.623c1.131,-3.828 2.478,-7.582 3.778,-11.389l3.84,-9.434c0.331,-0.827 0.5,-2.383 0.795,-3.46Zm-6.566,3.84c-1.722,1.007 -3.421,2.001 -5.094,2.978c-0.953,3.154 -3.801,12.291 -4.487,14.849c-1.6,5.851 -2.674,12.271 -4.566,18.355c-0.597,1.921 -1.289,3.797 -2.06,5.616l3.629,-2.307c0.434,-2.014 0.872,-4.021 1.434,-6.009c1.938,-6.867 4.492,-13.539 6.564,-20.396l3.305,-10.079c0.528,-1.201 0.948,-2.199 1.275,-3.007Zm-6.924,4.048c-0.869,0.508 -1.731,1.011 -2.584,1.51c-0.063,0.236 -0.145,0.548 -0.25,0.917c-0.906,3.202 -3.157,10.733 -3.673,13.044c-1.648,5.862 -2.375,13.873 -5.131,20.426c-0.354,0.839 -0.747,1.638 -1.173,2.4l1.031,0.58l7.295,-25.615c0.677,-2.221 3.16,-9.384 4.485,-13.262Zm-4.714,2.753c-1.971,1.151 -3.898,2.274 -5.772,3.366c-0.06,0.112 -0.153,0.208 -0.276,0.273l-0.175,0.051c0.16,0.172 0.257,0.413 0.192,0.736c-0.606,2.84 -2.174,9.967 -2.265,10.659c-0.672,3.154 -1.391,6.297 -2.415,9.34c-0.91,2.698 -1.988,5.315 -2.997,7.962l2.795,1.573l6.001,-22.129c0.736,-2.085 3.383,-8.413 4.912,-11.831Zm-8.509,4.959c-1.041,0.606 -2.064,1.2 -3.068,1.783l-7.902,22.399l3.037,1.708c0.34,-1.781 0.734,-3.551 1.195,-5.312c0.992,-3.793 2.312,-7.489 3.187,-11.312c0.16,-0.539 1.502,-5.11 3.014,-8.242c0.178,-0.368 0.359,-0.71 0.537,-1.024Zm-4.814,2.797c-1.372,0.795 -2.706,1.567 -3.999,2.315c-0.335,1.616 -1.037,4.307 -1.111,4.729c-0.766,2.517 -0.645,6.07 -1.576,9.172c-0.435,1.451 -1.056,2.749 -1.78,3.869l1.009,0.568l7.457,-20.653Zm-8.196,4.734c-0.682,0.392 -1.349,0.775 -2.001,1.149c-0.043,0.024 -0.085,0.048 -0.127,0.072c-0.19,1.346 -0.403,2.752 -0.481,3.245l-2.858,7.961l1.967,1.107c0.14,-1.439 0.135,-3.042 0.391,-4.673c0.461,-2.919 1.518,-5.733 2.501,-7.887c0.076,-0.132 0.303,-0.495 0.608,-0.974Zm-4.791,2.74c-1.218,0.691 -2.375,1.343 -3.466,1.953c-0.212,1.62 -0.395,3.856 -0.758,5.738l0.641,0.361c0.705,-2.48 2.514,-4.872 3.175,-7.039c0.082,-0.201 0.228,-0.564 0.408,-1.013Zm-3.394,-7.335c5.304,-29.526 5.517,-23.571 1.715,-1.029c5.076,-3.046 11.108,-6.649 17.855,-10.595c42.696,-24.984 113.182,-64.748 142.201,-78.739c1.957,-0.98 3.277,-0.292 4.241,1.133c0.364,0.533 0.472,2.818 0.518,3.401c0.158,2.029 3.463,8.011 7.557,15.241c6.069,10.696 14.126,23.758 18.678,31.041l62.545,-119.602c-1.109,-0.052 -2.208,-0.259 -2.545,-0.234c-7.716,0.657 -15.369,0.854 -23.037,0.811c-11.399,-0.084 -22.782,-0.764 -34.287,-1.562l-78.29,-11.276c4.51,5.029 18.387,23.454 26.273,34.973c2.738,3.984 4.761,7.19 5.537,8.794c1.042,2.18 0.445,3.756 0.138,4.276c-2.013,3.457 -19.936,14.302 -43.044,26.977c-35.959,19.719 -84.457,44.782 -101.535,53.418c-0.595,0.3 -4.521,1.613 -7.326,-2.419c-0.748,-1.08 -2.252,-3.419 -4.038,-6.755c-8.456,-15.782 -25.945,-53.886 -30.65,-64.188l-163.807,84.546l-29.358,13.911c5.183,8.764 17.477,29.798 24.747,44.247c0.692,1.363 1.116,2.684 1.545,3.937l0.528,-0.521c4.697,-4.177 13.732,-10.466 14.202,-10.778l35.35,-20.579l77.99,-43.628c0.773,-0.445 15.891,-10.193 22.051,-13.629c3.575,-1.996 6.389,-0.055 6.548,0.388l35.511,65.69l0.418,-0.238c2.651,-1.527 6.667,-3.947 11.769,-7.012Zm-2.925,10.875c-1.089,0.602 -2.089,1.15 -2.992,1.641l2.114,0.879c0.258,-0.847 0.566,-1.707 0.878,-2.52Zm-39.69,-47.428l-1.08,-2.096c-0.092,0.451 -0.173,0.855 -0.225,1.162c-0.201,0.595 -0.372,1.286 -0.541,2.027l1.846,-1.093Zm-2.848,-5.526l-1.346,-2.61c-0.358,2.204 -0.661,4.663 -0.688,4.809l-2.693,7.812l1.846,-1.093l1.251,-5.359c0.368,-0.805 1.07,-2.408 1.63,-3.559Zm-2.585,-5.014l-0.82,-1.591l-1.616,5.303c-0.581,2.688 -0.962,5.776 -1.694,8.775c0.678,-2.051 1.431,-4.071 1.942,-6.034c0.068,-0.187 1.295,-4.169 2.188,-6.453Zm-1.686,-3.271l-0.226,-0.438c-0.354,1.59 -0.984,3.933 -1.475,5.713l1.701,-5.275Zm-1.502,-2.913l-0.373,-0.723c-0.258,0.139 -0.531,0.29 -0.817,0.451l-2.726,7.347c-2.479,6.258 -4.02,13.232 -6.638,19.685c-0.241,0.594 -0.492,1.183 -0.753,1.764l1.438,-0.851l6.057,-17.962c0.154,-0.373 2.324,-5.548 3.314,-8.066c-0.011,-0.112 0.006,-0.218 0.051,-0.32c0.157,-0.482 0.306,-0.922 0.447,-1.325Zm-4.459,1.627c-0.381,0.227 -0.771,0.461 -1.168,0.701c-0.09,0.226 -0.205,0.512 -0.347,0.863c-0.039,0.096 -0.097,0.176 -0.173,0.237c-1.336,3.124 -3.927,9.36 -4.175,9.959c-1.631,4.442 -2.988,8.973 -4.783,13.349c-0.761,1.863 -1.598,3.688 -2.466,5.498l2.664,-1.578c3.243,-8.001 5.455,-16.729 8.53,-24.575c0.361,-0.754 1.061,-2.668 1.918,-4.454Zm-3.102,1.876c-1.47,0.9 -2.99,1.843 -4.471,2.769c-0.433,0.755 -0.883,1.798 -1.345,2.9c-1.357,3.229 -2.519,7.101 -2.756,7.639c-2.25,5.642 -3.627,12.297 -6.181,18.231l2.021,-1.196c0.884,-2.703 1.774,-5.408 2.826,-8.068c1.734,-4.397 3.897,-8.618 5.9,-12.911c0.235,-0.559 2.609,-6.104 4.006,-9.364Zm-6.621,4.118c-0.397,0.25 -0.788,0.497 -1.17,0.738c-0.025,0.288 -0.085,0.619 -0.174,0.979c-0.118,0.479 -0.932,2.201 -1.229,2.922c-0.081,0.287 -0.336,0.474 -0.622,0.467c-1.788,3.552 -3.149,7.339 -4.567,11.151c-1.791,4.793 -3.419,9.709 -5.621,14.302c0.436,-0.268 0.872,-0.535 1.309,-0.802l8.929,-21.083c0.265,-0.606 1.664,-5.271 3.145,-8.674Zm-10.842,6.671l-2.259,1.267c-0.369,0.774 -1.33,2.849 -1.372,3.051l-3.042,9.723c-0.216,0.528 -0.425,1.07 -0.63,1.623c0.648,-1.583 1.305,-3.162 1.954,-4.748l5.349,-10.916Zm-6.359,3.565l-4.435,2.486c0.089,0.162 0.104,0.385 0.016,0.636c-0.067,0.232 -0.263,0.399 -0.489,0.446c-0.033,0.116 -0.086,0.238 -0.165,0.37c-1.412,2.396 -4.767,9.067 -5.239,10.171l-9.079,20.46c0.988,-0.604 1.976,-1.208 2.963,-1.813c0.37,-1.454 0.786,-2.904 1.264,-4.347c1.677,-5.053 3.934,-9.917 5.893,-14.746l3.449,-7.529c0.727,-1.063 2.525,-3.649 3.193,-3.93c0.853,-0.365 1.986,-0.558 1.366,0.97c-0.011,0.232 -0.14,0.426 -0.342,0.531l-0.032,0.125c-0.372,0.929 -1.05,2.774 -1.31,3.64l-3.187,7.531l-6.957,15.709c1.013,-0.622 2.027,-1.245 3.04,-1.868l6.545,-19.6l3.506,-9.242Zm-6.612,3.707l-6.615,3.708l-2.822,7.264l-3.93,10.641c-0.493,1.402 -1.011,2.817 -1.561,4.227l-3.018,8.17c1.005,-0.61 2.009,-1.221 3.012,-1.833c1.496,-4.33 2.852,-8.725 4.541,-13c1.324,-3.363 2.924,-6.606 4.542,-9.808c0.542,-1.013 4.05,-6.72 5.851,-9.369Zm-10.733,6.017l-6.503,3.646c-0.29,0.515 -0.599,1.025 -0.727,1.32l-3.828,8.874c-2.31,6.261 -3.99,13.892 -6.855,20.594c1.122,-0.668 2.243,-1.339 3.364,-2.011c2.287,-6.22 4.428,-12.49 7.168,-18.508c2.179,-4.795 4.712,-9.393 7.381,-13.915Zm-8.632,4.84l-3.042,1.705c-0.07,0.171 -0.152,0.353 -0.248,0.548c-1.296,2.623 -5.295,9.933 -6.388,11.888l-11.642,22.519c2.695,-1.555 5.381,-3.125 8.061,-4.706c0.611,-0.361 1.222,-0.722 1.833,-1.084c0.508,-1.354 0.991,-2.741 1.473,-4.14c2.131,-6.195 4.087,-12.689 6.194,-18.234l3.759,-8.496Zm-5.053,2.832l-4.679,2.623c-0.271,0.432 -0.569,0.913 -0.722,1.181l-5.63,10.825l-9.118,19.27l-1.8,3.18c1.123,-0.637 2.245,-1.276 3.365,-1.918l12.783,-24.521c0.958,-1.695 4.153,-7.483 5.801,-10.64Zm-7.326,4.107l-5.241,2.939c-0.603,0.968 -1.18,1.955 -1.738,2.958c-5.476,9.813 -8.911,21.197 -14.432,30.874c1.068,-0.59 2.133,-1.182 3.197,-1.777c0.075,-0.258 0.159,-0.52 0.252,-0.784c0.843,-2.408 2.433,-4.841 2.765,-5.583l9.355,-19.185l5.842,-9.442Zm-7.712,4.324l-4.896,2.745c-1.442,2.771 -3.217,6.073 -3.723,7.146c-3.493,7.167 -5.735,15.516 -9.418,22.897c-0.494,0.99 -1.024,1.952 -1.584,2.89c1.501,-0.808 2.997,-1.622 4.489,-2.442c4.949,-8.653 7.96,-18.802 12.364,-27.991c0.859,-1.794 1.777,-3.547 2.768,-5.245Zm-9.562,5.36l-5.524,3.097c-0.012,0.017 -0.025,0.034 -0.039,0.05c-3.663,4.552 -6.848,11.304 -9.741,18.168c-2.074,4.911 -3.734,9.956 -5.203,14.417l6.792,-3.462c0.192,-0.101 0.384,-0.203 0.576,-0.305l12.219,-28.356c0.29,-0.552 0.939,-1.689 1.721,-3.04c-0.166,0.037 -0.344,0.018 -0.493,-0.072c-0.179,-0.115 -0.287,-0.301 -0.308,-0.497Zm-9.006,5.05l-4.329,2.427l-0.574,0.331c-0.322,0.658 -0.792,1.455 -1.4,2.327l-0.107,0.182c-2.467,3.935 -4.755,8.843 -7.067,13.931c-2.396,5.258 -4.738,10.743 -6.594,15.853l5.771,-2.942c0.013,-0.271 0.033,-0.546 0.064,-0.826c0.546,-5.114 2.536,-10.861 4.973,-16.304c2.53,-5.646 5.868,-10.887 9.263,-14.979Zm-7.881,4.479l-7.016,4.056c0.257,0.168 0.32,0.773 -0.074,2.009c-0.063,0.211 -0.215,0.366 -0.406,0.423c-0.987,2.411 -2.983,8.001 -3.458,9.082c-1.867,4.266 -4.295,9.071 -6.489,13.779c-0.791,1.697 -1.582,3.366 -2.227,5.035l4.776,-2.434c1.311,-4.71 2.996,-9.849 5.147,-14.776c1.959,-4.496 4.295,-8.803 6.685,-12.588c0.012,-0.116 0.07,-0.231 0.153,-0.318l0.173,-0.207c0.913,-1.439 1.831,-2.791 2.736,-4.061Zm-8.151,4.712l-4.816,2.783c0.115,1.053 -0.244,2.971 -1.136,5.41c-1.091,2.977 -2.53,6.911 -4.083,10.745c1.808,-3.142 3.786,-6.149 5.285,-9.01c0.641,-1.213 3.713,-8.169 4.545,-9.612c0.065,-0.113 0.134,-0.219 0.205,-0.316Zm-6.997,4.045l-5.239,3.027c0.011,0.552 -0.121,1.32 -0.441,2.283c-1.329,3.999 -4.918,12.704 -7.329,18.703l2.79,0.802c0.155,-0.543 0.342,-1.123 0.565,-1.732c2.255,-6.175 7.437,-15.568 9.619,-20.902c0.329,-0.799 0.531,-1.499 0.693,-2.055c-0.21,0.084 -0.45,0.049 -0.631,-0.102c-0.01,-0.008 -0.019,-0.016 -0.027,-0.024Zm-6.946,4.014l-4.094,2.367c0.123,0.205 0.143,0.563 0.092,1.019c-0.093,0.838 -1.421,3.531 -1.824,4.646c-1.127,2.739 -3.234,6.809 -4.513,10.436c-0.033,0.092 -0.065,0.183 -0.097,0.274l1.513,0.435c2.44,-6.36 7.348,-15.419 8.853,-19.023c0.022,-0.054 0.045,-0.105 0.07,-0.154Zm-5.715,3.303l-3.997,2.311c-0.093,0.044 -0.496,0.26 -1.124,0.601c-0.049,0.319 -0.128,0.696 -0.241,1.129c-0.025,0.106 -0.075,0.198 -0.147,0.269c-0.324,0.961 -1.052,3.566 -1.197,4.198c-0.412,1.693 -0.776,3.892 -1.496,5.932l1.106,0.317c0.14,-0.662 0.331,-1.333 0.571,-2.004c1.174,-3.302 3.48,-6.466 4.61,-8.807c0.427,-0.84 1.216,-3.311 1.915,-3.946Zm-6.766,3.813c-1.116,0.615 -2.484,1.373 -3.943,2.191l-3.404,6.737l3.823,1.099l1.9,-5.799c0.206,-0.641 1.205,-3.272 1.624,-4.228Zm-6.33,3.536c-2.368,1.343 -4.751,2.72 -6.536,3.807l3.89,1.117c0.612,-1.465 1.733,-3.37 2.646,-4.924Zm457.781,-180.448l0.268,12.753l0.576,35.593l0.779,-1.532c-0.231,-2.356 -0.431,-4.713 -0.516,-7.086c-0.233,-6.248 0.099,-12.504 0.234,-18.778c0.065,-2.358 0.31,-11.135 0.291,-15.234c-0.19,-0.128 -0.306,-0.355 -0.285,-0.614c0.029,-0.523 0.116,-0.923 0.239,-1.232l-0.002,-0.048c-0.001,-0.006 -0.001,-0.011 -0.002,-0.017c-0.561,-1.294 -1.093,-2.571 -1.582,-3.805Zm3.329,7.703c0.151,4.511 0.258,11.236 0.289,13.266l-0.092,22.103l1.159,-2.281c-0.206,-5.424 0.476,-10.992 0.44,-16.283l0.393,-10.611c-0.331,-0.111 -0.512,-0.468 -0.403,-0.803l0.142,-1.317c-0.647,-1.337 -1.295,-2.703 -1.928,-4.074Zm3.533,7.336l-0.214,9.453l0.015,2.769c0.181,-1.909 0.39,-3.811 0.513,-5.691l0.273,-5.361c-0.194,-0.385 -0.39,-0.775 -0.587,-1.17Zm2.211,4.351l0.027,2.251l0.025,10.418l0.732,-1.441l0.111,-9.09c-0.019,-0.12 -0.004,-0.238 0.039,-0.344c-0.298,-0.569 -0.61,-1.168 -0.934,-1.794Zm2.195,4.181l0.028,4.219l1.088,-2.14c-0.3,-0.553 -0.677,-1.255 -1.116,-2.079Zm-25.208,53.851c-0.607,-2.577 -1.173,-5.166 -1.649,-7.776l0.771,6.608l0.173,2.555l0.705,-1.387Zm-20.939,39.434c-0.864,-3.602 -1.723,-7.18 -2.373,-10.806c0.022,0.161 0.044,0.322 0.065,0.483c0.543,4.056 0.834,8.124 1.216,12.206l1.092,-1.883Zm-75.336,-17.251l3.871,-14.822l-6.189,16.297c0.772,-0.491 1.544,-0.984 2.318,-1.475Zm-165.519,67.298c0.079,0.23 0.442,0.856 0.576,0.622c0.255,-0.444 0.938,-0.092 1.099,-0.431c-0.228,0.013 -0.449,0.011 -0.663,-0.006c-0.277,0.202 -0.59,0.202 -0.909,-0.156c-0.035,-0.009 -0.069,-0.019 -0.103,-0.029Zm-39.405,-45.341c0.02,-0.104 0.04,-0.208 0.062,-0.312c0.074,-0.35 0.155,-0.699 0.243,-1.048c-0.194,0.532 -0.407,1.051 -0.637,1.556l0.332,-0.196Zm-3.502,2.073l3.322,-10.333c-1.144,3.228 -2.354,6.439 -3.746,9.555c-0.213,0.476 -0.431,0.948 -0.654,1.417l1.078,-0.639Zm-26.713,15.949c0.369,-1.075 0.737,-2.157 1.123,-3.242c0.936,-2.622 1.873,-5.27 2.85,-7.904l-5.641,12.171c0.556,-0.341 1.112,-0.683 1.668,-1.025Zm-28.675,17.535l5.364,-12.555l-6.285,13.109c0.307,-0.184 0.614,-0.369 0.921,-0.554Zm-65.472,34.265c0.132,-0.666 0.291,-1.332 0.48,-1.997c-0.362,0.667 -0.719,1.279 -1.055,1.832l0.575,0.165Zm259.291,-77.105c0.071,-0.166 0.142,-0.31 0.233,-0.442l0.159,0.055c0.314,0.023 0.589,-0.178 0.665,-0.475c3.408,0.584 -0.093,3.743 -1.057,0.862Zm22.546,-13.057c0.004,-0.119 0.028,-0.274 0.088,-0.412c-0.081,-0.063 -0.145,-0.146 -0.184,-0.244c-0.003,0.002 -0.006,0.004 -0.009,0.006c0.056,0.298 0.088,0.508 0.105,0.65c-0,0.007 -0,0.015 -0,0.022c-0.011,0.244 0.044,0.342 0,-0.022Zm-174.621,8.274c-0.206,0.094 -0.434,0.19 -0.686,0.286l-0.137,0.471c-0.245,0.799 -1.368,2.464 -1.58,3.063c0.755,-1.307 1.557,-2.581 2.403,-3.82Zm-111.431,64.016c-0.072,0.027 -0.145,0.035 -0.217,0.027c0.032,0.03 0.097,0.027 0.217,-0.027Zm-0,-0c0.035,-0.013 0.069,-0.03 0.103,-0.052c-0.038,0.021 -0.072,0.038 -0.103,0.052Zm280.677,-69.211c-0.062,-0.081 -0.092,-0.179 -0.109,-0.277c0.025,0.144 0.055,0.229 0.109,0.277Zm153.713,-89.172c0.158,-0.049 0.547,-0.169 0.332,-0.268c-0.138,-0.064 -0.236,0.052 -0.332,0.268Z" style="fill:#0b0e18;"/><path d="M308.283,417.832c-23.846,0 -45.02,-5.208 -63.521,-15.623c-18.501,-10.416 -32.96,-24.943 -43.375,-43.581c-10.416,-18.638 -15.624,-40.018 -15.624,-64.138c0,-24.12 5.345,-45.568 16.035,-64.343c10.689,-18.776 25.353,-33.645 43.992,-44.609c18.638,-10.964 39.743,-16.445 63.315,-16.445c23.024,-0 43.375,5.207 61.054,15.623c17.679,10.415 31.453,24.805 41.32,43.17c9.867,18.364 14.801,39.606 14.801,63.726c0,18.365 -3.152,35.221 -9.456,50.57c-6.304,15.35 -14.938,28.712 -25.902,40.087c-10.964,11.374 -23.503,20.145 -37.619,26.313c-14.116,6.167 -29.123,9.25 -45.02,9.25Zm3.7,-22.201c14.801,-0 27.615,-3.838 38.442,-11.512c10.826,-7.675 19.255,-18.57 25.285,-32.686c6.03,-14.116 9.045,-30.767 9.045,-49.953c-0,-22.202 -3.358,-41.663 -10.073,-58.382c-6.715,-16.72 -16.103,-29.808 -28.163,-39.264c-12.06,-9.456 -26.176,-14.184 -42.347,-14.184c-23.298,-0 -41.731,8.634 -55.299,25.901c-13.567,17.268 -20.351,40.977 -20.351,71.128c-0,21.379 3.563,40.223 10.689,56.531c7.127,16.309 16.994,29.123 29.603,38.442c12.608,9.319 26.998,13.979 43.169,13.979Z" style="fill:#415898;fill-rule:nonzero;"/><path d="M381.899,268.345l0.296,-0.155c17.096,-8.939 31.302,-16.66 37.47,-21.094c0.861,-0.619 1.566,-1.173 2.1,-1.659c-0.373,-0.683 -0.874,-1.543 -1.397,-2.347c-1.351,-2.126 -3.171,-4.82 -5.248,-7.802c-1.128,-2.517 -2.342,-4.985 -3.641,-7.402c-6.624,-12.328 -15.008,-22.865 -25.152,-31.611c0.069,-1.195 0.742,-2.088 1.511,-2.651c0.549,-0.401 4.656,-0.873 10.94,-0.139c20.189,2.321 69.344,10.429 76.778,10.951c11.359,0.796 22.614,1.494 33.867,1.554c7.45,0.041 14.912,-0.209 22.423,-0.88c0.99,-0.083 5.097,-1.029 7.282,-0.543c2.107,0.455 3.338,1.741 3.729,3.479c0.025,0.112 -0.027,0.387 -0.151,0.815c0.731,0.608 1.54,1.266 2.304,2.302c7.205,9.754 15.794,32.421 15.794,32.421c0.432,0.945 0.429,2.03 -0.025,2.96l-40.168,81.129l-24.626,41.928c-0.639,1.089 -1.777,1.78 -3.041,1.856c-1.265,0.08 -2.48,-0.48 -3.248,-1.481l-20.664,-28.082l-3.465,-7.208c-2.854,-4.782 -6.907,-11.641 -10.939,-18.698c-1.203,0.66 -2.59,1.064 -3.794,1.691c-10.708,5.562 -21.038,11.097 -31.145,16.777c-9.156,5.145 -18.129,10.41 -27.036,15.924c-8.356,5.174 -16.657,10.553 -25.085,16.088c-5.434,3.568 -10.92,7.2 -16.509,10.884c-5.261,3.631 -14.959,10.744 -24.283,16.872c-0.914,0.601 -1.824,1.192 -2.726,1.769c-10.332,6.611 -19.787,11.259 -20.909,11.293l-5.9,-2.998c-0.129,0.105 -0.316,0.116 -0.459,0.017c-0.12,-0.076 -0.181,-0.208 -0.174,-0.339l-23.686,-12.034l-6.138,-2.65c-1.42,-0.922 -4.845,-2.543 -4.835,-3.517c0.027,-0.975 -0.595,-2.239 -0.107,-3.037l-22.024,-42.72l-1.567,0.936c-6.486,-15.781 -9.729,-33.869 -9.729,-54.265c-0,-12.06 1.085,-23.09 3.256,-33.089l10.445,-5.19c1.394,-0.704 3.108,-0.152 3.827,1.239c0,0 26.198,46.061 36.357,64.115l1.512,2.717c20.114,-9.481 64.502,-30.631 97.98,-48.126Zm-116.239,118c0.079,0.23 0.442,0.856 0.576,0.622c0.255,-0.444 0.938,-0.092 1.099,-0.431c-0.228,0.013 -0.449,0.011 -0.663,-0.006c-0.277,0.202 -0.59,0.202 -0.909,-0.156c-0.035,-0.009 -0.069,-0.019 -0.103,-0.029Z" style="fill:#e16b42;"/><path d="M384.494,311.035c15.472,-8.561 29.993,-16.435 41.758,-22.563c5.8,-3.021 10.93,-5.618 15.173,-7.664c1.957,-0.98 3.277,-0.292 4.241,1.133c0.364,0.533 0.472,2.818 0.518,3.401c0.158,2.029 3.463,8.011 7.557,15.241c6.069,10.696 14.126,23.758 18.678,31.041l62.545,-119.602c-1.109,-0.052 -2.208,-0.259 -2.545,-0.234c-7.716,0.657 -15.369,0.854 -23.037,0.811c-11.399,-0.084 -22.782,-0.764 -34.287,-1.562l-78.29,-11.276c4.51,5.029 18.387,23.454 26.273,34.973c2.738,3.984 4.761,7.19 5.537,8.794c1.042,2.18 0.445,3.756 0.138,4.276c-0.684,1.175 -3.207,3.204 -7.148,5.869c-7.65,5.173 -20.644,12.742 -35.896,21.108c-0.847,0.465 -1.701,0.932 -2.562,1.403c-35.664,19.488 -82.297,43.582 -98.973,52.015c-0.595,0.3 -4.521,1.613 -7.326,-2.419c-0.748,-1.08 -2.252,-3.419 -4.038,-6.755c-8.456,-15.782 -25.945,-53.886 -30.65,-64.188l-11.747,6.063c0.394,-2.495 0.849,-4.932 1.365,-7.31l10.445,-5.19c1.394,-0.704 3.108,-0.152 3.827,1.239c0,0 26.198,46.061 36.357,64.115l1.512,2.717c20.114,-9.481 64.502,-30.631 97.98,-48.126l0.296,-0.155c17.096,-8.939 31.302,-16.66 37.47,-21.094c0.861,-0.619 1.566,-1.173 2.1,-1.659c-0.373,-0.683 -0.874,-1.543 -1.397,-2.347c-1.351,-2.126 -3.171,-4.82 -5.248,-7.802c-8.088,-11.606 -20.094,-27.574 -23.644,-31.376c-0.334,-0.361 -3.947,-3.903 -4.697,-5.53c-0.361,-0.782 -0.488,-1.485 -0.452,-2.107c0.069,-1.195 0.742,-2.088 1.511,-2.651c0.549,-0.401 4.656,-0.873 10.94,-0.139c20.189,2.321 69.344,10.429 76.778,10.951c11.359,0.796 22.614,1.494 33.867,1.554c7.45,0.041 14.912,-0.209 22.423,-0.88c0.99,-0.083 5.097,-1.029 7.282,-0.543c2.107,0.455 3.338,1.741 3.729,3.479c0.025,0.112 -0.027,0.387 -0.151,0.815c0.731,0.608 1.54,1.266 2.304,2.302c7.205,9.754 15.794,32.421 15.794,32.421c0.432,0.945 0.429,2.03 -0.025,2.96l-40.168,81.129l-24.626,41.928c-0.639,1.089 -1.777,1.78 -3.041,1.856c-1.265,0.08 -2.48,-0.48 -3.248,-1.481l-20.664,-28.082l-3.465,-7.208c-2.854,-4.782 -6.907,-11.641 -10.939,-18.698c-1.203,0.66 -2.59,1.064 -3.794,1.691c-10.708,5.562 -21.038,11.097 -31.145,16.777c-9.156,5.145 -18.129,10.41 -27.036,15.924c-8.356,5.174 -16.657,10.553 -25.085,16.088c-5.434,3.568 -10.92,7.2 -16.509,10.884c-5.261,3.631 -14.959,10.744 -24.283,16.872c-0.914,0.601 -1.824,1.192 -2.726,1.769c-10.332,6.611 -19.787,11.259 -20.909,11.293l-5.9,-2.998c-0.129,0.105 -0.316,0.116 -0.459,0.017c-0.12,-0.076 -0.181,-0.208 -0.174,-0.339l-23.686,-12.034l-6.138,-2.65c-1.42,-0.922 -4.845,-2.543 -4.835,-3.517c0.027,-0.975 -0.595,-2.239 -0.107,-3.037l-22.024,-42.72l-1.567,0.936c-0.775,-1.884 -1.503,-3.801 -2.184,-5.75l0.972,-0.576l-1.08,-2.096c-0.092,0.451 -0.173,0.855 -0.225,1.162c-0.031,0.091 -0.061,0.184 -0.09,0.28c-0.53,-1.571 -1.03,-3.162 -1.501,-4.775c0.016,-0.032 0.032,-0.065 0.048,-0.097l-0.174,-0.336c-1.566,-5.439 -2.797,-11.116 -3.694,-17.03c0.961,0.311 1.562,0.807 1.633,1.005l35.511,65.69l0.418,-0.238c2.651,-1.527 6.667,-3.947 11.769,-7.012c5.304,-29.526 5.517,-23.571 1.715,-1.029c5.076,-3.046 11.108,-6.649 17.855,-10.595c23.789,-13.921 56.206,-32.43 85.27,-48.512Zm-94.615,81.382l3.037,1.708c0.052,-0.274 0.106,-0.548 0.161,-0.822c0.302,-1.504 0.644,-3 1.034,-4.49c0.992,-3.793 2.312,-7.489 3.187,-11.312c0.16,-0.539 1.502,-5.11 3.014,-8.242c0.178,-0.368 0.359,-0.71 0.537,-1.024c-1.041,0.606 -2.064,1.2 -3.068,1.783l-7.902,22.399Zm6.394,1.633c-0.209,0.537 -0.418,1.074 -0.623,1.613l2.795,1.573l6.001,-22.129c0.736,-2.085 3.383,-8.413 4.912,-11.831c-1.971,1.151 -3.898,2.274 -5.772,3.366c-0.06,0.112 -0.153,0.208 -0.276,0.273l-0.175,0.051c0.16,0.172 0.257,0.413 0.192,0.736c-0.606,2.84 -2.174,9.967 -2.265,10.659c-0.672,3.154 -1.391,6.297 -2.415,9.34c-0.724,2.149 -1.556,4.247 -2.374,6.349Zm6.673,1.075c-0.163,0.437 -0.333,0.869 -0.512,1.295c-0.354,0.839 -0.747,1.638 -1.173,2.4l1.031,0.58l7.295,-25.615c0.677,-2.221 3.16,-9.384 4.485,-13.262c-0.869,0.508 -1.731,1.011 -2.584,1.51c-0.063,0.236 -0.145,0.548 -0.25,0.917c-0.906,3.202 -3.157,10.733 -3.673,13.044c-1.54,5.481 -2.277,12.841 -4.619,19.131Zm2.974,0.281c-0.355,0.97 -0.733,1.926 -1.131,2.867l3.629,-2.307c0.03,-0.136 0.059,-0.272 0.088,-0.408c0.406,-1.878 0.822,-3.747 1.346,-5.601c1.938,-6.867 4.492,-13.539 6.564,-20.396l3.305,-10.079c0.528,-1.201 0.948,-2.199 1.275,-3.007c-1.722,1.007 -3.421,2.001 -5.094,2.978c-0.953,3.154 -3.801,12.291 -4.487,14.849c-1.6,5.851 -2.674,12.271 -4.566,18.355c-0.288,0.927 -0.598,1.844 -0.929,2.749Zm68.866,-41.877c1.394,-0.886 2.786,-1.769 4.177,-2.648l3.083,-19.126l1.063,-7.373c0.099,-0.956 0.174,-3.074 0.262,-4.222c-1.384,0.797 -2.774,1.598 -4.169,2.403c0.027,0.023 0.053,0.048 0.078,0.076c0.089,0.091 0.239,0.298 0.26,0.686c0.027,0.256 -0.099,0.494 -0.308,0.618c-0.047,0.86 -0.906,2.943 -0.919,3.007l-1.691,8.47l-5.757,20.608c1.309,-0.836 2.616,-1.669 3.921,-2.499Zm8.901,-33.166c0.02,0.124 0.034,0.223 0.043,0.301c0.004,-0.119 0.028,-0.274 0.088,-0.412c-0.04,-0.031 -0.075,-0.066 -0.106,-0.106c-0.032,-0.042 -0.058,-0.088 -0.078,-0.138l-0.009,0.006c0.025,0.133 0.045,0.249 0.062,0.349Zm0.044,0.323c-0.01,0.238 0.039,0.338 0,0Zm43.368,-25.173l-1.315,4.989c-1.564,5.47 -2.723,11.178 -4.368,16.753c-0.988,3.348 -2.144,6.635 -3.422,9.844c0.875,-0.509 1.751,-1.018 2.629,-1.526c0.548,-2.375 1.096,-4.747 1.8,-7.087c0.779,-2.581 1.68,-5.12 2.633,-7.639c1.212,-3.202 2.507,-6.372 3.741,-9.557l3.224,-8.336c0.006,-0.02 0.023,-0.062 0.047,-0.123c-1.6,0.856 -3.258,1.752 -4.969,2.682Zm-161.439,90.832c0.079,0.23 0.442,0.856 0.576,0.622c0.255,-0.444 0.938,-0.092 1.099,-0.431c-0.228,0.013 -0.449,0.011 -0.663,-0.006c-0.277,0.202 -0.59,0.202 -0.909,-0.156c-0.035,-0.009 -0.069,-0.019 -0.103,-0.029Zm157.945,-88.923c-0.966,0.53 -1.946,1.07 -2.941,1.619c-0.034,0.11 -0.099,0.212 -0.192,0.292l-1.609,10.331c-0.765,3.625 -1.705,7.094 -3.124,10.337c-1.874,4.274 -4.361,8.157 -6.638,12.339c1.516,-0.903 3.034,-1.803 4.557,-2.7l9.261,-30.047c0.128,-0.331 0.368,-1.147 0.686,-2.171Zm-32.652,18.383c-2.032,1.164 -4.083,2.342 -6.149,3.53c0.032,0.09 0.06,0.198 0.078,0.325l-0.005,0.119c0.553,0.45 -0.11,3.637 -0.154,4.715l-0.595,7.529c-0.42,3.884 -0.783,7.73 -1.455,11.552c-0.336,1.917 -0.746,3.82 -1.193,5.718c1.126,-0.709 2.252,-1.416 3.377,-2.12l3.481,-20.306l2.262,-9.905c0.1,-0.259 0.219,-0.684 0.353,-1.157Zm27.142,-15.342c-1.245,0.691 -2.509,1.396 -3.792,2.112c-0.117,0.712 -0.219,1.314 -0.226,1.35l-2.086,9.08c-0.828,3.522 -1.569,7.066 -2.69,10.501c-1.283,3.926 -2.907,7.704 -4.585,11.46c1.007,-0.606 2.014,-1.21 3.024,-1.814l8.23,-24.154c0.306,-1.089 0.735,-4.788 1.688,-7.459c0.137,-0.382 0.284,-0.743 0.437,-1.076Zm-6.626,3.699c-1.353,0.758 -2.724,1.53 -4.111,2.312l-2.243,10.249c-1.231,4.775 -1.854,13.367 -3.74,20.262c0.293,-0.178 0.587,-0.356 0.88,-0.533l6.446,-24.286l2.768,-8.004Zm-6.177,3.479c-1.449,0.819 -2.914,1.649 -4.394,2.49c0.009,0.16 0.002,0.336 -0.028,0.526c-0.454,2.857 -1.868,9.611 -2.37,11.996l-4.802,19.026c1.853,-1.142 3.707,-2.278 5.564,-3.41c1.634,-7.3 2.793,-16.812 4.095,-22c0.284,-1.009 1.045,-5.562 1.935,-8.628Zm-5.906,3.349c-1.834,1.044 -3.69,2.102 -5.564,3.173c-0.065,0.954 -0.607,2.676 -0.66,3.376l-1.34,9.973c-0.936,4.794 -1.507,9.764 -2.826,14.525c-0.301,1.082 -0.646,2.145 -1.026,3.191c1.134,-0.706 2.268,-1.411 3.403,-2.113c0.168,-1.843 0.413,-3.692 0.787,-5.537c1.071,-5.261 2.959,-10.376 4.297,-15.423c0.593,-2.175 2.222,-8.111 2.929,-11.165Zm83.365,17.302c-0.463,0.883 -0.906,1.728 -1.328,2.532c0.441,1.674 0.772,3.54 0.894,3.985c0.972,3.679 2.171,7.327 3.021,11.064c0.648,2.859 1.082,5.755 1.461,8.644l1.768,2.144l-3.796,-16.416l-2.02,-11.953Zm58.643,-108.85l0.268,12.753l0.576,35.593l0.779,-1.532c-0.231,-2.356 -0.431,-4.713 -0.516,-7.086c-0.233,-6.248 0.099,-12.504 0.234,-18.778c0.065,-2.358 0.31,-11.135 0.291,-15.234c-0.19,-0.128 -0.306,-0.355 -0.285,-0.614c0.029,-0.523 0.116,-0.923 0.239,-1.232c0,0 -0.003,-0.059 -0.004,-0.065c-0.561,-1.294 -1.093,-2.571 -1.582,-3.805Zm-56.188,104.167l-0.474,0.906c0.256,0.759 0.484,1.545 0.681,2.352c1.043,4.267 1.328,9.058 2.06,12.894c1.065,6.129 2.638,12.182 3.623,18.318c0.105,0.661 0.196,1.322 0.277,1.983l0.8,0.969l0.874,-1.508l-5.162,-27.597c-0.215,-1.207 -0.775,-4.914 -1.352,-8.081l0.217,1.945c0.031,0.353 -0.236,0.664 -0.593,0.694c-0.361,0.032 -0.677,-0.237 -0.701,-0.595l-0.25,-2.28Zm15.721,-30.102c-0.641,1.232 -1.277,2.454 -1.908,3.666l2.56,13.482c0.581,3.425 1.255,6.823 1.842,10.234c-0.876,-6.347 -1.33,-12.749 -1.923,-19.186l-0.571,-8.196Zm43.796,-66.362c0.151,4.511 0.258,11.236 0.289,13.266l-0.092,22.103l1.159,-2.281c-0.206,-5.424 0.476,-10.992 0.44,-16.283l0.393,-10.611c-0.331,-0.111 -0.512,-0.468 -0.403,-0.803l0.142,-1.317c-0.647,-1.337 -1.295,-2.703 -1.928,-4.074Zm-12.655,7.426c0.158,-0.049 0.547,-0.169 0.332,-0.268c-0.138,-0.064 -0.236,0.052 -0.332,0.268Zm2.904,-7.739c-0.835,1.757 -1.729,3.608 -2.676,5.537c0.298,0.568 0.57,1.354 0.763,2.258c0.768,3.627 0.844,14.209 0.897,14.938l1.584,31.397l2.626,-5.165c-0.51,-3.787 -1.033,-7.57 -1.462,-11.373c-0.83,-7.415 -1.316,-14.851 -1.794,-22.305l0.062,-15.287Zm-21,41.507c-0.793,1.538 -1.59,3.082 -2.389,4.627c0.076,0.189 0.136,0.395 0.184,0.612c0.239,1.062 0.002,2.57 0.271,3.609l1.223,7.016l4.454,31.817l2.462,-4.843c-0.165,-0.863 -0.323,-1.728 -0.469,-2.595c-1.546,-9.106 -2.452,-18.302 -3.643,-27.477c-0.143,-1.118 -0.536,-8.331 -1.022,-12.427c-0.123,0.123 -0.302,0.194 -0.494,0.178c-0.294,-0.023 -0.52,-0.243 -0.577,-0.517Zm-4.186,8.101c-0.64,1.236 -1.28,2.472 -1.919,3.705c0.954,4.54 1.796,9.112 2.38,13.732c1.287,10.179 1.815,20.466 3.109,30.624l0.383,-0.66l2.2,-4.329c-1.194,-5.519 -2.371,-11.047 -3.232,-16.637c-0.939,-6.066 -1.494,-12.198 -2.215,-18.302l-0.747,-7.041l0.041,-1.092Zm-59.136,32.498c-0.431,-0.775 -0.857,-1.546 -1.276,-2.308c-0.171,0.893 -0.388,1.93 -0.663,3.007c0.598,-0.229 1.202,-0.448 1.811,-0.657c0.043,-0.014 0.086,-0.028 0.128,-0.042Zm72.351,-58.176c-0.279,0.546 -0.559,1.095 -0.842,1.647l0.872,12.897l1.069,9.164c-0.397,-5.825 -0.58,-11.662 -0.935,-17.448l-0.164,-6.26Zm7.408,-14.594c-0.107,0.214 -0.215,0.429 -0.324,0.644c-0.781,1.55 -1.587,3.145 -2.416,4.78c0.774,4.488 1.364,9.017 1.847,13.563c0.87,8.176 1.641,16.386 2.288,24.581c0.197,2.504 0.357,5.007 0.544,7.504l1.254,-2.466c-0.642,-3.289 -1.156,-6.633 -1.48,-10.023c-0.792,-8.37 -0.627,-16.895 -1.058,-25.016c-0.025,-0.648 0.031,-8.876 -0.241,-13.291c-0.177,-0.032 -0.323,-0.135 -0.414,-0.276Zm-27.117,52.791c-0.366,0.704 -0.731,1.406 -1.095,2.106c0.054,0.256 0.096,0.478 0.117,0.641l1.184,9.772l4.336,32.545l1.942,-3.349c-0.145,-0.745 -0.285,-1.491 -0.42,-2.238c-1.708,-9.529 -2.9,-19.14 -4.105,-28.765l-0.778,-8.825c-0.112,0.171 -0.305,0.266 -0.528,0.263c-0.357,-0.014 -0.635,-0.319 -0.622,-0.676l-0.031,-1.474Zm-26.125,49.967c-0.706,1.34 -1.087,2.065 -1.087,2.065c-0.057,0.107 -0.118,0.21 -0.183,0.31l2.619,3.176l-1.349,-5.551Zm62.023,-121.287c-0.487,1.107 -1.019,2.296 -1.594,3.557c-0.016,1.519 -0.596,3.363 -0.522,4.809l0.83,15.915c0.094,1.345 0.201,2.69 0.316,4.033c0.165,-4.685 0.429,-9.311 0.483,-13.753l0.107,-2.595c-0.238,-0.104 -0.389,-0.362 -0.365,-0.637l0.682,-8.758c0.057,-0.579 0.06,-1.629 0.063,-2.571Zm-18.457,37.555c-0.582,1.137 -1.17,2.282 -1.762,3.436c1.198,6.045 2.218,12.125 2.905,18.253c0.973,8.739 1.445,17.521 2.39,26.251l0.787,-1.546l-1.045,-5.614l-2.964,-30.507l-0.311,-10.273Zm-14.405,27.918c-0.376,0.725 -0.752,1.449 -1.127,2.171l0.652,4.667l0.918,9.532l4.191,29.147l0.685,-1.181c-1.061,-5.72 -1.92,-11.487 -2.534,-17.296c-0.955,-8.956 -1.465,-17.966 -2.617,-26.872c-0.066,-0.046 -0.123,-0.103 -0.168,-0.168Zm-12.214,23.466c-0.99,1.896 -1.956,3.747 -2.895,5.543c0.863,3.928 1.72,7.851 2.396,11.821c1.569,9.2 2.663,18.469 4.003,27.699l2.393,-4.127c-0.131,-0.222 -0.258,-0.466 -0.377,-0.731c-0.921,-2.04 -1.345,-5.202 -1.452,-5.624l-2.822,-24.743l-1.246,-9.838Zm-51.865,-13.889c-0.276,-0.612 -0.532,-1.197 -0.765,-1.75c-0.32,1.738 -0.797,4.019 -1.201,5.969c0.568,-1.33 1.312,-2.896 1.966,-4.219Zm-11.07,26.358l3.871,-14.822l-6.189,16.297c0.772,-0.491 1.544,-0.984 2.318,-1.475Zm117.077,-84.566l-0.214,9.453l0.015,2.769c0.181,-1.909 0.39,-3.811 0.513,-5.691l0.273,-5.361c-0.194,-0.385 -0.39,-0.775 -0.587,-1.17Zm2.211,4.351l0.027,2.251l0.025,10.418l0.732,-1.441l0.111,-9.09c-0.019,-0.12 -0.004,-0.238 0.039,-0.344c-0.298,-0.569 -0.61,-1.168 -0.934,-1.794Zm2.195,4.181l0.028,4.219l1.088,-2.14c-0.3,-0.553 -0.677,-1.255 -1.116,-2.079Zm-112.165,45.396c-0.132,0.068 -0.265,0.133 -0.399,0.202c-0.159,0.57 -0.342,1.215 -0.537,1.893c0.218,-0.583 0.415,-1.102 0.576,-1.522c0.096,-0.251 0.221,-0.438 0.36,-0.573Zm7.066,14.894c-0.529,-0.983 -1.039,-1.948 -1.529,-2.889c-0.11,1.09 -0.195,2.045 -0.236,2.33c-0.526,2.756 -0.82,5.569 -1.709,8.222c-0.091,0.271 -0.187,0.539 -0.288,0.805c0.154,-0.075 0.308,-0.148 0.462,-0.222c0.748,-2.414 1.558,-5.177 2.43,-6.808c0.294,-0.55 0.587,-1.03 0.87,-1.438Zm79.891,-6.439c-0.607,-2.577 -1.173,-5.166 -1.649,-7.776l0.771,6.608l0.173,2.555l0.705,-1.387Zm-20.939,39.434c-0.864,-3.602 -1.723,-7.18 -2.373,-10.806c0.022,0.161 0.044,0.322 0.065,0.483c0.543,4.056 0.834,8.124 1.216,12.206l1.092,-1.883Zm19.846,-92.129c-0.498,0.98 -1.003,1.973 -1.514,2.976l0.778,9.685l3.297,37.147l1.763,-3.466c-0.747,-3.866 -1.364,-7.761 -1.768,-11.694c-1.185,-11.522 -1.242,-23.192 -2.556,-34.648Zm-29.666,57.463c-0.523,1.004 -1.042,1.998 -1.555,2.98l0.089,0.799l1.416,10.842l4.342,24.403l0.428,4.436l2.917,-5.029c-1.153,-4.526 -2.36,-9.014 -3.214,-13.596c-0.944,-5.094 -1.428,-10.262 -2.134,-15.411l-0.969,-7.22c-0.009,0.345 -0.289,0.625 -0.635,0.629c-0.358,-0.001 -0.658,-0.285 -0.66,-0.647l-0.025,-2.186Zm20.774,-40.079c-0.62,1.205 -1.244,2.417 -1.871,3.634c0.207,0.32 0.387,0.816 0.508,1.416c0.628,3.148 1.268,12.978 1.452,14.306l3.756,28.032l1.658,-3.261c-1.147,-5.655 -2.128,-11.338 -2.813,-17.074c-1.079,-9.003 -1.614,-18.064 -2.69,-27.053Zm-79.948,28.393c-1.092,0.57 -2.22,1.164 -3.382,1.781c-0.291,0.848 -0.539,1.588 -0.567,1.693l-2.618,8.651c-1.939,5.781 -3.403,11.712 -5.558,17.419c-0.557,1.476 -1.175,2.916 -1.824,4.341c0.746,-0.452 1.489,-0.912 2.232,-1.377c0.35,-2.958 0.827,-5.906 1.645,-8.824c1.642,-5.881 4.343,-11.478 6.418,-17.07c0.441,-0.899 2.226,-3.998 3.654,-6.614Zm7.046,7.596c-0.409,-0.818 -0.797,-1.61 -1.162,-2.371c-0.524,1.712 -1.003,3.463 -1.138,4.44c-0.527,3.428 -1.047,6.849 -2.229,10.07c-0.703,1.912 -1.625,3.702 -2.561,5.494c0.66,-0.387 1.325,-0.768 1.994,-1.141c0.216,-1.404 0.442,-2.803 0.801,-4.194c0.695,-2.684 1.845,-5.202 2.706,-7.827c0.179,-0.467 0.931,-2.742 1.589,-4.471Zm45.146,17.459c-0.899,1.719 -1.768,3.38 -2.603,4.974c0.732,3.088 1.754,9.987 2.067,11.718l4.895,26.062l1.964,-3.386c-1.608,-8.304 -3.13,-16.623 -4.383,-24.987c-0.721,-4.784 -1.297,-9.583 -1.94,-14.381Zm-9.62,18.357c-0.681,1.295 -1.285,2.446 -1.806,3.436c0.901,1.774 1.778,3.732 2.306,5.856c0.438,1.761 0.671,3.585 0.843,5.366l2.914,3.533l-3.969,-16.277l-0.288,-1.914Zm-102.258,-10.005c-2.422,1.398 -4.857,2.808 -7.3,4.223c0.427,0.558 0.869,1.557 0.871,2.942c0.009,3.814 -1.196,10.195 -1.507,11.704c-0.946,3.906 -1.714,8.064 -2.813,12.125c-0.467,1.725 -0.989,3.428 -1.558,5.101c1.141,-0.733 2.279,-1.463 3.415,-2.191c0.586,-4.062 1.199,-8.107 2.131,-12.099c0.82,-3.526 2,-6.959 3.048,-10.428l2.544,-8.198c0.021,-0.07 0.668,-2.067 1.169,-3.179Zm-50.273,29.282l-4.415,2.582c-0.109,1.002 -0.33,2.659 -0.739,5.069l-2.713,10.281c-1.781,5.892 -3.472,11.81 -5.622,17.558c-0.723,1.935 -1.517,3.833 -2.327,5.726l3.634,-2.31c1.159,-4.917 2.336,-9.797 3.769,-14.623c1.131,-3.828 2.478,-7.582 3.778,-11.389l3.84,-9.434c0.331,-0.827 0.5,-2.383 0.795,-3.46Zm-39.723,23.131c-0.682,0.392 -1.349,0.775 -2.001,1.149l-0.127,0.072c-0.19,1.346 -0.403,2.752 -0.481,3.245l-2.858,7.961l1.967,1.107c0.14,-1.439 0.135,-3.042 0.391,-4.673c0.461,-2.919 1.518,-5.733 2.501,-7.887c0.076,-0.132 0.303,-0.495 0.608,-0.974Zm-4.791,2.74c-1.218,0.691 -2.375,1.343 -3.466,1.953c-0.212,1.62 -0.395,3.856 -0.758,5.738l0.641,0.361c0.705,-2.48 2.514,-4.872 3.175,-7.039c0.082,-0.201 0.228,-0.564 0.408,-1.013Zm77.064,-44.876c-4.1,2.385 -8.194,4.771 -12.25,7.139c0.061,0.038 0.122,0.082 0.181,0.133c0.346,-0.026 0.625,0.064 0.611,0.098c-0.045,0.145 -0.132,0.266 -0.25,0.344c0.104,0.205 0.153,0.47 0.102,0.791c-0.414,2.627 -1.562,8.836 -1.887,10.637l-6.56,23.083l4.556,-2.896l5.823,-25.021c0.193,-0.578 1.455,-5.866 2.678,-8.769c0.649,-1.547 1.471,-2.437 1.948,-2.488c0.396,-0.031 1.249,0.142 1.106,1.145c-0.075,0.544 -0.65,1.904 -0.614,2.117c0.094,0.348 -0.102,0.696 -0.451,0.793l-0.041,0.006l-1.209,8.072l-6.392,22.33c1.369,-0.891 2.732,-1.778 4.09,-2.66c0.179,-2.897 0.491,-5.813 1.106,-8.721c1.145,-5.469 3.124,-10.802 4.55,-16.033c0.347,-1.016 1.903,-7.035 2.903,-10.1Zm1.072,0.091c-1.054,2.548 -0.566,9.86 -0.76,10.86l-6.177,22.154c2.787,-1.808 5.555,-3.599 8.309,-5.374l4.283,-19.851c0.377,-1.448 1.197,-7.676 2.057,-11.29c0.168,-0.706 0.257,-1.446 0.387,-1.918c-2.3,1.334 -4.605,2.672 -6.909,4.012c-0.032,0.135 -0.065,0.274 -0.099,0.416l-0.034,0.129c3.408,0.584 -0.093,3.743 -1.057,0.862Zm1.057,-0.862l-0.031,0.001c-0.321,-0.06 -0.584,0.102 -0.793,0.419l0.159,0.055c0.314,0.023 0.589,-0.178 0.665,-0.475Zm-0.824,0.42c-0.13,-0.037 -0.239,-0.118 -0.317,-0.224l-0.065,0.038c0.039,0.235 0.089,0.443 0.149,0.628c0.071,-0.166 0.142,-0.31 0.233,-0.442Zm-14.1,7.808c-1.929,1.126 -3.849,2.247 -5.756,3.362c-0.006,0.154 -0.065,0.304 -0.18,0.421c-1.166,1.395 -1.858,3.286 -2.377,5.324c-0.805,3.144 -1.108,6.583 -1.599,9.176l-6.661,22.406l7.142,-4.54c-0.407,-0.307 -0.601,-0.843 -0.441,-1.367l6.402,-23.762c0.528,-1.75 2.275,-7.806 3.062,-10.344c0.087,-0.293 0.251,-0.499 0.429,-0.63c-0.007,-0.015 -0.014,-0.031 -0.021,-0.046Zm-8.748,5.111c-2.907,1.699 -5.781,3.38 -8.611,5.035c0.013,0.01 0.027,0.02 0.04,0.03c0.145,0.114 0.494,0.521 0.376,1.215c-0.16,0.962 -0.941,3.3 -1.057,3.642c-0.031,0.112 -0.085,0.203 -0.157,0.265l-0.141,0.448l-2.805,9.787l-7.509,22.808l2.794,-1.776c0.749,-3.352 1.4,-6.721 2.206,-10.066c1.199,-4.968 2.716,-9.835 4.375,-14.668c0.363,-0.984 3.584,-8.45 4.469,-11.134c-0.144,-0.2 -0.164,-0.484 -0.024,-0.717c1.502,-2.718 2.181,-2.261 1.436,0.924c-0.608,2.597 -3.292,10.64 -3.58,11.672c-2.141,6.76 -3.435,13.751 -5.491,20.527c-0.167,0.55 -0.342,1.097 -0.525,1.64l3.781,-2.403c0.644,-4.761 1.568,-9.549 2.764,-14.268c0.923,-3.631 2.07,-7.176 3.007,-10.724c0.874,-2.517 1.685,-5.921 2.959,-8.954c0.495,-1.173 1.049,-2.291 1.693,-3.283Zm-61.84,35.848c-1.089,0.602 -2.089,1.15 -2.992,1.641l2.114,0.879c0.258,-0.847 0.566,-1.707 0.878,-2.52Zm101.626,-58.303c-0.062,-0.081 -0.092,-0.179 -0.109,-0.277c0.025,0.144 0.055,0.229 0.109,0.277Zm-82.32,47.289c-1.372,0.795 -2.706,1.567 -3.999,2.315c-0.335,1.616 -1.037,4.307 -1.111,4.729c-0.766,2.517 -0.645,6.07 -1.576,9.172c-0.435,1.451 -1.056,2.749 -1.78,3.869l1.009,0.568l7.457,-20.653Z" style="fill:#0b0e18;"/><path d="M379.563,257.899c11.503,-6.02 21.502,-11.317 28.089,-15.248c-7.731,-11.232 -20.163,-27.861 -23.731,-31.681c-0.016,-0.017 -0.032,-0.034 -0.048,-0.051c-0.481,-0.522 -5.397,-5.858 -6.482,-8.208c-2.533,-5.486 -1.751,-9.885 0.294,-13.157c1.093,-1.749 2.548,-3.177 4.051,-4.275c0.737,-0.539 2.27,-1.528 4.844,-2.036c2.015,-0.398 6.792,-0.799 13.379,-0.029c20.07,2.308 68.931,10.39 76.321,10.909c11.135,0.78 22.169,1.47 33.199,1.528c7.054,0.04 14.122,-0.19 21.233,-0.818c-0,0 7.609,-1.03 10.651,-0.36c5.873,1.285 9.419,4.793 11.03,9.379c0.311,0.361 0.623,0.749 0.934,1.169c7.283,9.862 15.981,31.913 17.038,34.625c1.558,3.678 1.456,7.845 -0.296,11.434c-0.009,0.018 -0.017,0.035 -0.025,0.052l-40.168,81.128c-0.109,0.22 -0.226,0.437 -0.351,0.649l-24.621,41.92c-2.381,4.061 -6.612,6.658 -11.322,6.947c-4.707,0.293 -9.234,-1.784 -12.091,-5.51c-0.041,-0.054 -0.082,-0.108 -0.122,-0.162l-20.664,-28.082c-0.38,-0.518 -0.712,-1.069 -0.99,-1.648c-0,-0 -3.265,-6.791 -3.262,-6.786c-1.677,-2.812 -3.736,-6.287 -5.948,-10.074c-12.824,6.729 -25.125,13.458 -37.185,20.504c-5.111,2.986 -10.179,6.028 -15.225,9.152c-13.629,8.439 -27.11,17.43 -41.302,26.787c-5.878,4.063 -17.033,12.256 -27.17,18.744c-8.907,5.699 -17.228,10.012 -20.812,11.541c-2.696,1.15 -4.629,1.355 -5.357,1.377c-1.732,0.053 -3.45,-0.331 -4.996,-1.116c0,-0 -4.244,-2.157 -4.229,-2.153c-1.14,-0.304 -2.248,-0.804 -3.201,-1.455c-0.264,-0.176 -0.517,-0.362 -0.749,-0.548l-21.752,-11.051l-5.842,-2.523c-0.532,-0.23 -1.044,-0.504 -1.53,-0.82c-1.628,-1.056 -4.943,-2.98 -6.257,-4.331c-2.65,-2.727 -3.309,-5.716 -3.285,-7.969c0.009,0.432 0.074,1.097 0.074,1.097c0,0 -0.014,-0.458 -0.008,-1.173l-16.008,-31.052c-0,0 -3.522,-7.888 -3.72,-12.169c-0.19,-4.133 0.03,-10.257 0.528,-12.62c0.466,-2.212 1.568,-0.936 1.568,-0.936l27.795,53.928c-0.488,0.798 0.134,2.062 0.107,3.037c-0.01,0.974 3.415,2.595 4.835,3.517l6.138,2.65l23.686,12.034c-0.007,0.131 0.054,0.263 0.174,0.339c0.143,0.099 0.33,0.088 0.459,-0.017l5.9,2.998c1.122,-0.034 10.577,-4.682 20.909,-11.293c0.902,-0.577 1.812,-1.168 2.726,-1.769c9.324,-6.128 19.022,-13.241 24.283,-16.872c5.589,-3.684 11.075,-7.316 16.509,-10.884c8.428,-5.535 16.729,-10.914 25.085,-16.088c8.907,-5.514 17.88,-10.779 27.036,-15.924c10.107,-5.68 20.437,-11.215 31.145,-16.777c1.204,-0.627 2.591,-1.031 3.794,-1.691c4.032,7.057 8.085,13.916 10.939,18.698l3.465,7.208l20.664,28.082c0.768,1.001 1.983,1.561 3.248,1.481c1.264,-0.076 2.402,-0.767 3.041,-1.856l24.626,-41.928l40.168,-81.129c0.454,-0.93 0.457,-2.015 0.025,-2.96c-0,0 -8.589,-22.667 -15.794,-32.421c-0.764,-1.036 -1.573,-1.694 -2.304,-2.302c0.124,-0.428 0.176,-0.703 0.151,-0.815c-0.391,-1.738 -1.622,-3.024 -3.729,-3.479c-2.185,-0.486 -6.292,0.46 -7.282,0.543c-7.511,0.671 -14.973,0.921 -22.423,0.88c-11.253,-0.06 -22.508,-0.758 -33.867,-1.554c-7.434,-0.522 -56.589,-8.63 -76.778,-10.951c-6.284,-0.734 -10.391,-0.262 -10.94,0.139c-0.769,0.563 -1.442,1.456 -1.511,2.651c-0.036,0.622 0.091,1.325 0.452,2.107c0.75,1.627 4.363,5.169 4.697,5.53c3.55,3.802 15.556,19.77 23.644,31.376c2.077,2.982 3.897,5.676 5.248,7.802c0.523,0.804 1.024,1.664 1.397,2.347c-0.534,0.486 -1.239,1.04 -2.1,1.659c-6.168,4.434 -20.374,12.155 -37.47,21.094l-0.296,0.155c-33.478,17.495 -77.866,38.645 -97.98,48.126l-1.512,-2.717c-10.159,-18.054 -36.357,-64.115 -36.357,-64.115c-0.719,-1.391 -2.433,-1.943 -3.827,-1.239l-10.445,5.19c1.021,-4.702 2.282,-9.177 3.783,-13.424l1.997,-0.992c6.365,-3.218 14.176,-0.764 17.54,5.461c1.261,2.218 21.881,38.476 33.116,58.368c22.432,-10.64 60.025,-28.722 89.191,-43.975c0.725,-0.379 1.444,-0.755 2.158,-1.129Z" style="fill:#fff;"/></g></svg>